# xmcd CD database file
#
# Track frame offsets:
#	215
#	30777
#	50342
#	70885
#	98585
#	117547
#	144057
#	161710
#
# Disc length: 2659 seconds
#
# Revision: 0
# Processed by: cddbd v1.5.2PL0 Copyright (c) Steve Scherf et al.
# Submitted via: CDex 1.51
#
DISCID=5d0a6108
DTITLE=Bobby Rush - Instant Repaly:The Hits
DYEAR=1992
DGENRE=Blues
TTITLE0=Sue
TTITLE1=Chicken Heads
TTITLE2=What's Good for the Goose Is Good for the Gander
TTITLE3=Making A Decision
TTITLE4=Man Can Give It (But He Can't Take It)
TTITLE5=Wearing It Out
TTITLE6=Mama Talk to Your Daughter
TTITLE7=Twenty-Eight Days
EXTD=YEAR: 1992
EXTT0=
EXTT1=
EXTT2=
EXTT3=
EXTT4=
EXTT5=
EXTT6=
EXTT7=
PLAYORDER=
